# xmcd CD database file
#
# Track frame offsets:
#	150
#	23770
#	50554
#	67360
#	84272
#
# Disc length: 1355 seconds
#
# Revision: 0
# Processed by: cddbd v1.5.2PL0 Copyright (c) Steve Scherf et al.
# Submitted via: CDex 1.70beta2
#
DISCID=3d054905
DTITLE=compilation - 1959 - A l'ombre des monuments
DYEAR=201
DGENRE=Jazz
TTITLE0=Lee Konitz meets Jimmy Giufre - The song is you
TTITLE1=Bill Evans and Bob Brookmeyer - Honeysuckle rose
TTITLE2=Jon Hendricks all stars - A good git together
TTITLE3=Duke Ellington - Blues in blueprint
TTITLE4=Dollar Brand - Uka-jonga Phambili
EXTD=YEAR: 201
EXTT0=
EXTT1=
EXTT2=
EXTT3=
EXTT4=
PLAYORDER=
